<svg width="24" height="24" viewBox="0 0 24 24" fill="none" xmlns="http://www.w3.org/2000/svg">
<path d="M21.0399 3.02469C21.0399 3.02469 23.1674 2.20226 22.9894 4.19942C22.9308 5.02185 22.3991 7.90061 21.9851 11.0139L20.5668 20.237C20.5668 20.237 20.4485 21.5881 19.3845 21.8232C18.321 22.0577 16.7253 21.0008 16.4296 20.7657C16.193 20.5893 11.9972 17.9456 10.5198 16.6536C10.1058 16.3007 9.63264 15.5961 10.5789 14.7737L16.7839 8.89892C17.4931 8.19429 18.2022 6.54944 15.2473 8.54661L6.97289 14.1272C6.97289 14.1272 6.02717 14.7151 4.25455 14.1863L0.412512 13.011C0.412512 13.011 -1.0058 12.13 1.41738 11.2489C7.32775 8.48798 14.5973 5.66839 21.0388 3.02469H21.0399Z" fill="white"/>
</svg>
